<mxfile host="app.diagrams.net" modified="2024-03-14T19:33:22.599Z" agent="Mozilla/5.0 (X11; Linux x86_64) AppleWebKit/537.36 (KHTML, like Gecko) Chrome/122.0.0.0 Safari/537.36" etag="zjp6ZpbvoCOiTOU_rcAB" version="24.0.5" type="device" pages="3">
  <diagram id="C5RBs43oDa-KdzZeNtuy" name="main">
    <mxGraphModel dx="1395" dy="616" grid="1" gridSize="10" guides="1" tooltips="1" connect="1" arrows="1" fold="1" page="1" pageScale="1" pageWidth="827" pageHeight="1169" math="0" shadow="0">
      <root>
        <mxCell id="WIyWlLk6GJQsqaUBKTNV-0" />
        <mxCell id="WIyWlLk6GJQsqaUBKTNV-1" parent="WIyWlLk6GJQsqaUBKTNV-0" />
        <mxCell id="tajFt144Meme0_0gXp2e-2" style="edgeStyle=orthogonalEdgeStyle;rounded=0;orthogonalLoop=1;jettySize=auto;html=1;exitX=0;exitY=0.5;exitDx=0;exitDy=0;" parent="WIyWlLk6GJQsqaUBKTNV-1" source="WIyWlLk6GJQsqaUBKTNV-3" target="tajFt144Meme0_0gXp2e-0" edge="1">
          <mxGeometry relative="1" as="geometry" />
        </mxCell>
        <mxCell id="tajFt144Meme0_0gXp2e-4" style="edgeStyle=orthogonalEdgeStyle;rounded=0;orthogonalLoop=1;jettySize=auto;html=1;exitX=1;exitY=0.5;exitDx=0;exitDy=0;entryX=0.67;entryY=-0.1;entryDx=0;entryDy=0;entryPerimeter=0;" parent="WIyWlLk6GJQsqaUBKTNV-1" source="WIyWlLk6GJQsqaUBKTNV-3" target="tajFt144Meme0_0gXp2e-1" edge="1">
          <mxGeometry relative="1" as="geometry" />
        </mxCell>
        <mxCell id="WIyWlLk6GJQsqaUBKTNV-3" value="1) awaken in the laboratory" style="rounded=1;whiteSpace=wrap;html=1;fontSize=12;glass=0;strokeWidth=1;shadow=0;fillColor=#FFFFFF;" parent="WIyWlLk6GJQsqaUBKTNV-1" vertex="1">
          <mxGeometry x="340" width="160" height="40" as="geometry" />
        </mxCell>
        <mxCell id="tajFt144Meme0_0gXp2e-7" style="edgeStyle=orthogonalEdgeStyle;rounded=0;orthogonalLoop=1;jettySize=auto;html=1;exitX=0;exitY=0.5;exitDx=0;exitDy=0;entryX=1;entryY=0.5;entryDx=0;entryDy=0;fillColor=#7EA6E0;" parent="WIyWlLk6GJQsqaUBKTNV-1" source="tajFt144Meme0_0gXp2e-0" target="tajFt144Meme0_0gXp2e-6" edge="1">
          <mxGeometry relative="1" as="geometry" />
        </mxCell>
        <mxCell id="tajFt144Meme0_0gXp2e-0" value="search the room" style="rounded=0;whiteSpace=wrap;html=1;fillColor=#7EA6E0;" parent="WIyWlLk6GJQsqaUBKTNV-1" vertex="1">
          <mxGeometry x="270" y="50" width="100" height="20" as="geometry" />
        </mxCell>
        <mxCell id="tajFt144Meme0_0gXp2e-13" style="edgeStyle=orthogonalEdgeStyle;rounded=0;orthogonalLoop=1;jettySize=auto;html=1;exitX=1;exitY=0.25;exitDx=0;exitDy=0;entryX=0;entryY=0.25;entryDx=0;entryDy=0;" parent="WIyWlLk6GJQsqaUBKTNV-1" source="tajFt144Meme0_0gXp2e-1" target="MbkP6upGsImHyuMTCcEk-66" edge="1">
          <mxGeometry relative="1" as="geometry">
            <mxPoint x="580" y="55" as="targetPoint" />
            <Array as="points">
              <mxPoint x="570" y="55" />
              <mxPoint x="570" y="90" />
              <mxPoint x="580" y="90" />
              <mxPoint x="580" y="85" />
            </Array>
          </mxGeometry>
        </mxCell>
        <mxCell id="tajFt144Meme0_0gXp2e-1" value="leave immediately" style="rounded=0;whiteSpace=wrap;html=1;fillColor=#7EA6E0;" parent="WIyWlLk6GJQsqaUBKTNV-1" vertex="1">
          <mxGeometry x="460" y="50" width="100" height="20" as="geometry" />
        </mxCell>
        <mxCell id="tajFt144Meme0_0gXp2e-11" style="edgeStyle=orthogonalEdgeStyle;rounded=0;orthogonalLoop=1;jettySize=auto;html=1;exitX=0.5;exitY=1;exitDx=0;exitDy=0;entryX=0;entryY=0.75;entryDx=0;entryDy=0;fillColor=#7EA6E0;" parent="WIyWlLk6GJQsqaUBKTNV-1" source="tajFt144Meme0_0gXp2e-6" target="tajFt144Meme0_0gXp2e-9" edge="1">
          <mxGeometry relative="1" as="geometry" />
        </mxCell>
        <mxCell id="MbkP6upGsImHyuMTCcEk-0" style="edgeStyle=orthogonalEdgeStyle;rounded=0;orthogonalLoop=1;jettySize=auto;html=1;exitX=0.25;exitY=1;exitDx=0;exitDy=0;entryX=0.75;entryY=0;entryDx=0;entryDy=0;fillColor=#7EA6E0;" parent="WIyWlLk6GJQsqaUBKTNV-1" source="tajFt144Meme0_0gXp2e-6" target="tajFt144Meme0_0gXp2e-8" edge="1">
          <mxGeometry relative="1" as="geometry" />
        </mxCell>
        <mxCell id="tajFt144Meme0_0gXp2e-6" value="you find a crowbar" style="rounded=0;whiteSpace=wrap;html=1;fillColor=#FFFFFF;" parent="WIyWlLk6GJQsqaUBKTNV-1" vertex="1">
          <mxGeometry x="120" y="50" width="120" height="20" as="geometry" />
        </mxCell>
        <mxCell id="tajFt144Meme0_0gXp2e-8" value="keep looking" style="rounded=0;whiteSpace=wrap;html=1;fillColor=#CCCCCC;" parent="WIyWlLk6GJQsqaUBKTNV-1" vertex="1">
          <mxGeometry x="60" y="90" width="100" height="30" as="geometry" />
        </mxCell>
        <mxCell id="tajFt144Meme0_0gXp2e-12" style="edgeStyle=orthogonalEdgeStyle;rounded=0;orthogonalLoop=1;jettySize=auto;html=1;exitX=1;exitY=0.5;exitDx=0;exitDy=0;entryX=0.008;entryY=0.58;entryDx=0;entryDy=0;entryPerimeter=0;" parent="WIyWlLk6GJQsqaUBKTNV-1" source="tajFt144Meme0_0gXp2e-9" target="MbkP6upGsImHyuMTCcEk-66" edge="1">
          <mxGeometry relative="1" as="geometry">
            <mxPoint x="570" y="95" as="targetPoint" />
          </mxGeometry>
        </mxCell>
        <mxCell id="tajFt144Meme0_0gXp2e-9" value="leave" style="rounded=0;whiteSpace=wrap;html=1;fillColor=#7EA6E0;" parent="WIyWlLk6GJQsqaUBKTNV-1" vertex="1">
          <mxGeometry x="240" y="85" width="70" height="20" as="geometry" />
        </mxCell>
        <mxCell id="MbkP6upGsImHyuMTCcEk-6" style="edgeStyle=orthogonalEdgeStyle;rounded=0;orthogonalLoop=1;jettySize=auto;html=1;exitX=1;exitY=0.5;exitDx=0;exitDy=0;entryX=0;entryY=0.5;entryDx=0;entryDy=0;" parent="WIyWlLk6GJQsqaUBKTNV-1" source="MbkP6upGsImHyuMTCcEk-1" target="MbkP6upGsImHyuMTCcEk-4" edge="1">
          <mxGeometry relative="1" as="geometry" />
        </mxCell>
        <mxCell id="MbkP6upGsImHyuMTCcEk-1" value="you don&#39;t see any more items, but you uncover a window" style="rounded=0;whiteSpace=wrap;html=1;fillColor=#FFFFFF;" parent="WIyWlLk6GJQsqaUBKTNV-1" vertex="1">
          <mxGeometry x="10" y="140" width="160" height="40" as="geometry" />
        </mxCell>
        <mxCell id="MbkP6upGsImHyuMTCcEk-2" style="edgeStyle=orthogonalEdgeStyle;rounded=0;orthogonalLoop=1;jettySize=auto;html=1;exitX=0.5;exitY=1;exitDx=0;exitDy=0;entryX=0.6;entryY=0;entryDx=0;entryDy=0;entryPerimeter=0;" parent="WIyWlLk6GJQsqaUBKTNV-1" source="tajFt144Meme0_0gXp2e-8" target="MbkP6upGsImHyuMTCcEk-1" edge="1">
          <mxGeometry relative="1" as="geometry" />
        </mxCell>
        <mxCell id="MbkP6upGsImHyuMTCcEk-3" value="try to climb through" style="rounded=0;whiteSpace=wrap;html=1;fillColor=#CCCCCC;" parent="WIyWlLk6GJQsqaUBKTNV-1" vertex="1">
          <mxGeometry x="20" y="210" width="130" height="20" as="geometry" />
        </mxCell>
        <mxCell id="MbkP6upGsImHyuMTCcEk-7" style="edgeStyle=orthogonalEdgeStyle;rounded=0;orthogonalLoop=1;jettySize=auto;html=1;exitX=1;exitY=0.25;exitDx=0;exitDy=0;" parent="WIyWlLk6GJQsqaUBKTNV-1" source="MbkP6upGsImHyuMTCcEk-4" edge="1">
          <mxGeometry relative="1" as="geometry">
            <mxPoint x="350" y="100" as="targetPoint" />
          </mxGeometry>
        </mxCell>
        <mxCell id="MbkP6upGsImHyuMTCcEk-4" value="leave through the door" style="rounded=0;whiteSpace=wrap;html=1;fillColor=#CCCCCC;" parent="WIyWlLk6GJQsqaUBKTNV-1" vertex="1">
          <mxGeometry x="190" y="150" width="130" height="20" as="geometry" />
        </mxCell>
        <mxCell id="MbkP6upGsImHyuMTCcEk-5" style="edgeStyle=orthogonalEdgeStyle;rounded=0;orthogonalLoop=1;jettySize=auto;html=1;exitX=0.5;exitY=1;exitDx=0;exitDy=0;entryX=0.592;entryY=-0.1;entryDx=0;entryDy=0;entryPerimeter=0;" parent="WIyWlLk6GJQsqaUBKTNV-1" source="MbkP6upGsImHyuMTCcEk-1" target="MbkP6upGsImHyuMTCcEk-3" edge="1">
          <mxGeometry relative="1" as="geometry" />
        </mxCell>
        <mxCell id="MbkP6upGsImHyuMTCcEk-16" style="edgeStyle=orthogonalEdgeStyle;rounded=0;orthogonalLoop=1;jettySize=auto;html=1;exitX=0.25;exitY=1;exitDx=0;exitDy=0;entryX=0.25;entryY=0;entryDx=0;entryDy=0;" parent="WIyWlLk6GJQsqaUBKTNV-1" source="MbkP6upGsImHyuMTCcEk-8" target="MbkP6upGsImHyuMTCcEk-11" edge="1">
          <mxGeometry relative="1" as="geometry" />
        </mxCell>
        <mxCell id="MbkP6upGsImHyuMTCcEk-18" style="edgeStyle=orthogonalEdgeStyle;rounded=0;orthogonalLoop=1;jettySize=auto;html=1;exitX=0.75;exitY=1;exitDx=0;exitDy=0;entryX=0.5;entryY=0;entryDx=0;entryDy=0;" parent="WIyWlLk6GJQsqaUBKTNV-1" source="MbkP6upGsImHyuMTCcEk-8" target="MbkP6upGsImHyuMTCcEk-10" edge="1">
          <mxGeometry relative="1" as="geometry" />
        </mxCell>
        <mxCell id="MbkP6upGsImHyuMTCcEk-8" value="you&#39;re on the 7th story, yikes!&amp;nbsp; try feeling for a ledge with your foot" style="rounded=0;whiteSpace=wrap;html=1;" parent="WIyWlLk6GJQsqaUBKTNV-1" vertex="1">
          <mxGeometry x="30" y="260" width="130" height="50" as="geometry" />
        </mxCell>
        <mxCell id="MbkP6upGsImHyuMTCcEk-9" style="edgeStyle=orthogonalEdgeStyle;rounded=0;orthogonalLoop=1;jettySize=auto;html=1;exitX=0.75;exitY=1;exitDx=0;exitDy=0;entryX=0.646;entryY=-0.049;entryDx=0;entryDy=0;entryPerimeter=0;" parent="WIyWlLk6GJQsqaUBKTNV-1" source="MbkP6upGsImHyuMTCcEk-3" target="MbkP6upGsImHyuMTCcEk-8" edge="1">
          <mxGeometry relative="1" as="geometry" />
        </mxCell>
        <mxCell id="MbkP6upGsImHyuMTCcEk-10" value="feel to the left" style="rounded=0;whiteSpace=wrap;html=1;fillColor=#CCCCCC;" parent="WIyWlLk6GJQsqaUBKTNV-1" vertex="1">
          <mxGeometry x="130" y="350" width="90" height="30" as="geometry" />
        </mxCell>
        <mxCell id="MbkP6upGsImHyuMTCcEk-15" style="edgeStyle=orthogonalEdgeStyle;rounded=0;orthogonalLoop=1;jettySize=auto;html=1;exitX=0.5;exitY=1;exitDx=0;exitDy=0;entryX=0.5;entryY=0;entryDx=0;entryDy=0;" parent="WIyWlLk6GJQsqaUBKTNV-1" source="MbkP6upGsImHyuMTCcEk-11" target="MbkP6upGsImHyuMTCcEk-14" edge="1">
          <mxGeometry relative="1" as="geometry" />
        </mxCell>
        <mxCell id="MbkP6upGsImHyuMTCcEk-11" value="feel to the right" style="rounded=0;whiteSpace=wrap;html=1;fillColor=#CCCCCC;" parent="WIyWlLk6GJQsqaUBKTNV-1" vertex="1">
          <mxGeometry y="340" width="90" height="30" as="geometry" />
        </mxCell>
        <mxCell id="MbkP6upGsImHyuMTCcEk-14" value="You fall to your death" style="rounded=0;whiteSpace=wrap;html=1;fillColor=#FF3D1F;" parent="WIyWlLk6GJQsqaUBKTNV-1" vertex="1">
          <mxGeometry x="10" y="400" width="120" height="30" as="geometry" />
        </mxCell>
        <mxCell id="MbkP6upGsImHyuMTCcEk-24" style="edgeStyle=orthogonalEdgeStyle;rounded=0;orthogonalLoop=1;jettySize=auto;html=1;exitX=0.25;exitY=1;exitDx=0;exitDy=0;entryX=0.75;entryY=0;entryDx=0;entryDy=0;" parent="WIyWlLk6GJQsqaUBKTNV-1" source="MbkP6upGsImHyuMTCcEk-20" target="MbkP6upGsImHyuMTCcEk-21" edge="1">
          <mxGeometry relative="1" as="geometry" />
        </mxCell>
        <mxCell id="MbkP6upGsImHyuMTCcEk-20" value="theres a ledge" style="rounded=0;whiteSpace=wrap;html=1;" parent="WIyWlLk6GJQsqaUBKTNV-1" vertex="1">
          <mxGeometry x="150" y="420" width="100" height="30" as="geometry" />
        </mxCell>
        <mxCell id="MbkP6upGsImHyuMTCcEk-23" style="edgeStyle=orthogonalEdgeStyle;rounded=0;orthogonalLoop=1;jettySize=auto;html=1;exitX=0.5;exitY=0;exitDx=0;exitDy=0;" parent="WIyWlLk6GJQsqaUBKTNV-1" source="MbkP6upGsImHyuMTCcEk-21" target="MbkP6upGsImHyuMTCcEk-14" edge="1">
          <mxGeometry relative="1" as="geometry" />
        </mxCell>
        <mxCell id="MbkP6upGsImHyuMTCcEk-42" value="" style="edgeStyle=orthogonalEdgeStyle;rounded=0;orthogonalLoop=1;jettySize=auto;html=1;" parent="WIyWlLk6GJQsqaUBKTNV-1" source="MbkP6upGsImHyuMTCcEk-22" target="MbkP6upGsImHyuMTCcEk-29" edge="1">
          <mxGeometry relative="1" as="geometry" />
        </mxCell>
        <mxCell id="MbkP6upGsImHyuMTCcEk-22" value="go back inside, maybe the door is safer" style="rounded=0;whiteSpace=wrap;html=1;fillColor=#CCCCCC;" parent="WIyWlLk6GJQsqaUBKTNV-1" vertex="1">
          <mxGeometry x="220" y="290" width="175" height="40" as="geometry" />
        </mxCell>
        <mxCell id="MbkP6upGsImHyuMTCcEk-48" value="" style="edgeStyle=orthogonalEdgeStyle;rounded=0;orthogonalLoop=1;jettySize=auto;html=1;" parent="WIyWlLk6GJQsqaUBKTNV-1" source="MbkP6upGsImHyuMTCcEk-26" target="MbkP6upGsImHyuMTCcEk-47" edge="1">
          <mxGeometry relative="1" as="geometry" />
        </mxCell>
        <mxCell id="MbkP6upGsImHyuMTCcEk-26" value="stay in the room" style="rounded=0;whiteSpace=wrap;html=1;fillColor=#CCCCCC;" parent="WIyWlLk6GJQsqaUBKTNV-1" vertex="1">
          <mxGeometry x="380" y="195" width="110" height="15" as="geometry" />
        </mxCell>
        <mxCell id="MbkP6upGsImHyuMTCcEk-27" style="edgeStyle=orthogonalEdgeStyle;rounded=0;orthogonalLoop=1;jettySize=auto;html=1;exitX=0.5;exitY=1;exitDx=0;exitDy=0;entryX=0.411;entryY=0.062;entryDx=0;entryDy=0;entryPerimeter=0;" parent="WIyWlLk6GJQsqaUBKTNV-1" source="MbkP6upGsImHyuMTCcEk-10" target="MbkP6upGsImHyuMTCcEk-20" edge="1">
          <mxGeometry relative="1" as="geometry" />
        </mxCell>
        <mxCell id="MbkP6upGsImHyuMTCcEk-21" value="climb on to it" style="rounded=0;whiteSpace=wrap;html=1;shadow=1;fillColor=#CCCCCC;" parent="WIyWlLk6GJQsqaUBKTNV-1" vertex="1">
          <mxGeometry x="35" y="470" width="100" height="30" as="geometry" />
        </mxCell>
        <mxCell id="MbkP6upGsImHyuMTCcEk-44" style="edgeStyle=orthogonalEdgeStyle;rounded=0;orthogonalLoop=1;jettySize=auto;html=1;entryX=0;entryY=0.75;entryDx=0;entryDy=0;" parent="WIyWlLk6GJQsqaUBKTNV-1" source="MbkP6upGsImHyuMTCcEk-28" target="MbkP6upGsImHyuMTCcEk-66" edge="1">
          <mxGeometry relative="1" as="geometry">
            <mxPoint x="560" y="120" as="targetPoint" />
          </mxGeometry>
        </mxCell>
        <mxCell id="MbkP6upGsImHyuMTCcEk-28" value="go out the door" style="rounded=0;whiteSpace=wrap;html=1;fillColor=#CCCCCC;" parent="WIyWlLk6GJQsqaUBKTNV-1" vertex="1">
          <mxGeometry x="370" y="120" width="110" height="30" as="geometry" />
        </mxCell>
        <mxCell id="MbkP6upGsImHyuMTCcEk-46" value="" style="edgeStyle=orthogonalEdgeStyle;rounded=0;orthogonalLoop=1;jettySize=auto;html=1;" parent="WIyWlLk6GJQsqaUBKTNV-1" source="MbkP6upGsImHyuMTCcEk-29" target="MbkP6upGsImHyuMTCcEk-26" edge="1">
          <mxGeometry relative="1" as="geometry" />
        </mxCell>
        <mxCell id="MbkP6upGsImHyuMTCcEk-29" value="you are back in the room" style="rounded=0;whiteSpace=wrap;html=1;" parent="WIyWlLk6GJQsqaUBKTNV-1" vertex="1">
          <mxGeometry x="190" y="210" width="180" height="40" as="geometry" />
        </mxCell>
        <mxCell id="MbkP6upGsImHyuMTCcEk-41" style="edgeStyle=orthogonalEdgeStyle;rounded=0;orthogonalLoop=1;jettySize=auto;html=1;exitX=0.75;exitY=0;exitDx=0;exitDy=0;entryX=0.08;entryY=1.175;entryDx=0;entryDy=0;entryPerimeter=0;" parent="WIyWlLk6GJQsqaUBKTNV-1" source="MbkP6upGsImHyuMTCcEk-20" target="MbkP6upGsImHyuMTCcEk-22" edge="1">
          <mxGeometry relative="1" as="geometry" />
        </mxCell>
        <mxCell id="MbkP6upGsImHyuMTCcEk-43" style="edgeStyle=orthogonalEdgeStyle;rounded=0;orthogonalLoop=1;jettySize=auto;html=1;exitX=0.75;exitY=0;exitDx=0;exitDy=0;entryX=0.364;entryY=0.933;entryDx=0;entryDy=0;entryPerimeter=0;" parent="WIyWlLk6GJQsqaUBKTNV-1" source="MbkP6upGsImHyuMTCcEk-29" target="MbkP6upGsImHyuMTCcEk-28" edge="1">
          <mxGeometry relative="1" as="geometry" />
        </mxCell>
        <mxCell id="MbkP6upGsImHyuMTCcEk-51" style="edgeStyle=orthogonalEdgeStyle;rounded=0;orthogonalLoop=1;jettySize=auto;html=1;exitX=1;exitY=0.5;exitDx=0;exitDy=0;entryX=0.5;entryY=0;entryDx=0;entryDy=0;" parent="WIyWlLk6GJQsqaUBKTNV-1" source="MbkP6upGsImHyuMTCcEk-47" target="MbkP6upGsImHyuMTCcEk-50" edge="1">
          <mxGeometry relative="1" as="geometry" />
        </mxCell>
        <mxCell id="MbkP6upGsImHyuMTCcEk-52" value="" style="edgeStyle=orthogonalEdgeStyle;rounded=0;orthogonalLoop=1;jettySize=auto;html=1;" parent="WIyWlLk6GJQsqaUBKTNV-1" source="MbkP6upGsImHyuMTCcEk-47" target="MbkP6upGsImHyuMTCcEk-49" edge="1">
          <mxGeometry relative="1" as="geometry" />
        </mxCell>
        <mxCell id="MbkP6upGsImHyuMTCcEk-47" value="youre dehydrated" style="rounded=0;whiteSpace=wrap;html=1;" parent="WIyWlLk6GJQsqaUBKTNV-1" vertex="1">
          <mxGeometry x="408.5" y="270" width="120" height="30" as="geometry" />
        </mxCell>
        <mxCell id="MbkP6upGsImHyuMTCcEk-57" style="edgeStyle=orthogonalEdgeStyle;rounded=0;orthogonalLoop=1;jettySize=auto;html=1;exitX=0.25;exitY=1;exitDx=0;exitDy=0;entryX=0.5;entryY=0;entryDx=0;entryDy=0;" parent="WIyWlLk6GJQsqaUBKTNV-1" source="MbkP6upGsImHyuMTCcEk-49" target="MbkP6upGsImHyuMTCcEk-56" edge="1">
          <mxGeometry relative="1" as="geometry" />
        </mxCell>
        <mxCell id="MbkP6upGsImHyuMTCcEk-49" value="look for water" style="rounded=0;whiteSpace=wrap;html=1;fillColor=#CCCCCC;" parent="WIyWlLk6GJQsqaUBKTNV-1" vertex="1">
          <mxGeometry x="350" y="340" width="110" height="25" as="geometry" />
        </mxCell>
        <mxCell id="MbkP6upGsImHyuMTCcEk-55" value="" style="edgeStyle=orthogonalEdgeStyle;rounded=0;orthogonalLoop=1;jettySize=auto;html=1;" parent="WIyWlLk6GJQsqaUBKTNV-1" source="MbkP6upGsImHyuMTCcEk-50" target="MbkP6upGsImHyuMTCcEk-54" edge="1">
          <mxGeometry relative="1" as="geometry" />
        </mxCell>
        <mxCell id="MbkP6upGsImHyuMTCcEk-50" value="nah im fine" style="rounded=0;whiteSpace=wrap;html=1;fillColor=#CCCCCC;" parent="WIyWlLk6GJQsqaUBKTNV-1" vertex="1">
          <mxGeometry x="480" y="330" width="110" height="25" as="geometry" />
        </mxCell>
        <mxCell id="MbkP6upGsImHyuMTCcEk-54" value="you collapse from dehydration" style="rounded=0;whiteSpace=wrap;html=1;fillColor=#FF3D1F;" parent="WIyWlLk6GJQsqaUBKTNV-1" vertex="1">
          <mxGeometry x="490" y="380" width="120" height="40" as="geometry" />
        </mxCell>
        <mxCell id="MbkP6upGsImHyuMTCcEk-63" value="" style="edgeStyle=orthogonalEdgeStyle;rounded=0;orthogonalLoop=1;jettySize=auto;html=1;" parent="WIyWlLk6GJQsqaUBKTNV-1" source="MbkP6upGsImHyuMTCcEk-56" target="MbkP6upGsImHyuMTCcEk-62" edge="1">
          <mxGeometry relative="1" as="geometry" />
        </mxCell>
        <mxCell id="MbkP6upGsImHyuMTCcEk-74" style="edgeStyle=orthogonalEdgeStyle;rounded=0;orthogonalLoop=1;jettySize=auto;html=1;exitX=1;exitY=0.75;exitDx=0;exitDy=0;entryX=0.25;entryY=1;entryDx=0;entryDy=0;" parent="WIyWlLk6GJQsqaUBKTNV-1" source="MbkP6upGsImHyuMTCcEk-56" target="MbkP6upGsImHyuMTCcEk-59" edge="1">
          <mxGeometry relative="1" as="geometry" />
        </mxCell>
        <mxCell id="MbkP6upGsImHyuMTCcEk-56" value="you find some water, but its in a rusty pipe. drink it?" style="rounded=0;whiteSpace=wrap;html=1;" parent="WIyWlLk6GJQsqaUBKTNV-1" vertex="1">
          <mxGeometry x="259" y="390" width="136" height="50" as="geometry" />
        </mxCell>
        <mxCell id="MbkP6upGsImHyuMTCcEk-60" value="" style="edgeStyle=orthogonalEdgeStyle;rounded=0;orthogonalLoop=1;jettySize=auto;html=1;" parent="WIyWlLk6GJQsqaUBKTNV-1" source="MbkP6upGsImHyuMTCcEk-59" target="MbkP6upGsImHyuMTCcEk-54" edge="1">
          <mxGeometry relative="1" as="geometry" />
        </mxCell>
        <mxCell id="MbkP6upGsImHyuMTCcEk-59" value="no" style="rounded=0;whiteSpace=wrap;html=1;fillColor=#CCCCCC;" parent="WIyWlLk6GJQsqaUBKTNV-1" vertex="1">
          <mxGeometry x="408.5" y="385" width="55" height="30" as="geometry" />
        </mxCell>
        <mxCell id="MbkP6upGsImHyuMTCcEk-65" value="" style="edgeStyle=orthogonalEdgeStyle;rounded=0;orthogonalLoop=1;jettySize=auto;html=1;" parent="WIyWlLk6GJQsqaUBKTNV-1" source="MbkP6upGsImHyuMTCcEk-62" target="MbkP6upGsImHyuMTCcEk-64" edge="1">
          <mxGeometry relative="1" as="geometry" />
        </mxCell>
        <mxCell id="MbkP6upGsImHyuMTCcEk-62" value="yes" style="rounded=0;whiteSpace=wrap;html=1;fillColor=#CCCCCC;" parent="WIyWlLk6GJQsqaUBKTNV-1" vertex="1">
          <mxGeometry x="360.5" y="470" width="55" height="30" as="geometry" />
        </mxCell>
        <mxCell id="MbkP6upGsImHyuMTCcEk-64" value="you now have tetanus and are paralyzed" style="rounded=0;whiteSpace=wrap;html=1;fillColor=#FF3D1F;" parent="WIyWlLk6GJQsqaUBKTNV-1" vertex="1">
          <mxGeometry x="200" y="460" width="90" height="50" as="geometry" />
        </mxCell>
        <mxCell id="MbkP6upGsImHyuMTCcEk-71" style="edgeStyle=orthogonalEdgeStyle;rounded=0;orthogonalLoop=1;jettySize=auto;html=1;exitX=1;exitY=1;exitDx=0;exitDy=0;entryX=0.5;entryY=0;entryDx=0;entryDy=0;" parent="WIyWlLk6GJQsqaUBKTNV-1" source="MbkP6upGsImHyuMTCcEk-66" target="MbkP6upGsImHyuMTCcEk-68" edge="1">
          <mxGeometry relative="1" as="geometry" />
        </mxCell>
        <mxCell id="MbkP6upGsImHyuMTCcEk-66" value="youre now in the hallway" style="rounded=0;whiteSpace=wrap;html=1;" parent="WIyWlLk6GJQsqaUBKTNV-1" vertex="1">
          <mxGeometry x="640" y="60" width="120" height="60" as="geometry" />
        </mxCell>
        <mxCell id="MbkP6upGsImHyuMTCcEk-76" style="edgeStyle=orthogonalEdgeStyle;rounded=0;orthogonalLoop=1;jettySize=auto;html=1;entryX=0.5;entryY=0;entryDx=0;entryDy=0;" parent="WIyWlLk6GJQsqaUBKTNV-1" source="MbkP6upGsImHyuMTCcEk-67" target="MbkP6upGsImHyuMTCcEk-75" edge="1">
          <mxGeometry relative="1" as="geometry" />
        </mxCell>
        <mxCell id="MbkP6upGsImHyuMTCcEk-67" value="go left" style="rounded=0;whiteSpace=wrap;html=1;fillColor=#CCCCCC;" parent="WIyWlLk6GJQsqaUBKTNV-1" vertex="1">
          <mxGeometry x="598.5" y="140" width="61.5" height="15" as="geometry" />
        </mxCell>
        <mxCell id="MbkP6upGsImHyuMTCcEk-68" value="go right" style="rounded=0;whiteSpace=wrap;html=1;fillColor=#CCCCCC;" parent="WIyWlLk6GJQsqaUBKTNV-1" vertex="1">
          <mxGeometry x="730" y="155" width="61.5" height="15" as="geometry" />
        </mxCell>
        <mxCell id="MbkP6upGsImHyuMTCcEk-70" style="edgeStyle=orthogonalEdgeStyle;rounded=0;orthogonalLoop=1;jettySize=auto;html=1;exitX=0.25;exitY=1;exitDx=0;exitDy=0;entryX=0.642;entryY=-0.2;entryDx=0;entryDy=0;entryPerimeter=0;" parent="WIyWlLk6GJQsqaUBKTNV-1" source="MbkP6upGsImHyuMTCcEk-66" target="MbkP6upGsImHyuMTCcEk-67" edge="1">
          <mxGeometry relative="1" as="geometry" />
        </mxCell>
        <mxCell id="MbkP6upGsImHyuMTCcEk-75" value="you encounter the glitcher" style="rounded=0;whiteSpace=wrap;html=1;" parent="WIyWlLk6GJQsqaUBKTNV-1" vertex="1">
          <mxGeometry x="540" y="210" width="100" height="40" as="geometry" />
        </mxCell>
        <mxCell id="MbkP6upGsImHyuMTCcEk-78" value="you encounter the byte bender" style="rounded=0;whiteSpace=wrap;html=1;" parent="WIyWlLk6GJQsqaUBKTNV-1" vertex="1">
          <mxGeometry x="691.5" y="210" width="100" height="40" as="geometry" />
        </mxCell>
        <mxCell id="MbkP6upGsImHyuMTCcEk-79" style="edgeStyle=orthogonalEdgeStyle;rounded=0;orthogonalLoop=1;jettySize=auto;html=1;entryX=0.645;entryY=0.025;entryDx=0;entryDy=0;entryPerimeter=0;" parent="WIyWlLk6GJQsqaUBKTNV-1" source="MbkP6upGsImHyuMTCcEk-68" target="MbkP6upGsImHyuMTCcEk-78" edge="1">
          <mxGeometry relative="1" as="geometry" />
        </mxCell>
      </root>
    </mxGraphModel>
  </diagram>
  <diagram id="b1zQ17-YlDQdusZBiJ1T" name="glitcher">
    <mxGraphModel dx="2524" dy="-361" grid="1" gridSize="10" guides="1" tooltips="1" connect="1" arrows="1" fold="1" page="1" pageScale="1" pageWidth="850" pageHeight="1100" math="0" shadow="0">
      <root>
        <mxCell id="0" />
        <mxCell id="1" parent="0" />
        <mxCell id="7ll33GOGdLyXnNrk37ep-1" value="you encounter the glitcher. he launches his first attack, a laserlike beam of corrupted code" style="whiteSpace=wrap;html=1;" parent="1" vertex="1">
          <mxGeometry x="-490" y="1100" width="140" height="80" as="geometry" />
        </mxCell>
        <mxCell id="7ll33GOGdLyXnNrk37ep-2" value="dodge to the left" style="whiteSpace=wrap;html=1;fillColor=#CCCCCC;" parent="1" vertex="1">
          <mxGeometry x="-705" y="1165" width="130" height="30" as="geometry" />
        </mxCell>
        <mxCell id="b-PW-BUJUct7SB3stRK7-26" style="edgeStyle=orthogonalEdgeStyle;rounded=0;orthogonalLoop=1;jettySize=auto;html=1;exitX=0.5;exitY=1;exitDx=0;exitDy=0;" edge="1" parent="1" source="7ll33GOGdLyXnNrk37ep-3" target="b-PW-BUJUct7SB3stRK7-25">
          <mxGeometry relative="1" as="geometry" />
        </mxCell>
        <mxCell id="7ll33GOGdLyXnNrk37ep-3" value="dodge to the right" style="whiteSpace=wrap;html=1;fillColor=#CCCCCC;" parent="1" vertex="1">
          <mxGeometry x="-415" y="1240" width="130" height="30" as="geometry" />
        </mxCell>
        <mxCell id="7ll33GOGdLyXnNrk37ep-5" style="edgeStyle=orthogonalEdgeStyle;rounded=0;orthogonalLoop=1;jettySize=auto;html=1;exitX=0.75;exitY=1;exitDx=0;exitDy=0;entryX=0.2;entryY=-0.067;entryDx=0;entryDy=0;entryPerimeter=0;" parent="1" source="7ll33GOGdLyXnNrk37ep-1" target="7ll33GOGdLyXnNrk37ep-3" edge="1">
          <mxGeometry relative="1" as="geometry" />
        </mxCell>
        <mxCell id="7ll33GOGdLyXnNrk37ep-6" style="edgeStyle=orthogonalEdgeStyle;rounded=0;orthogonalLoop=1;jettySize=auto;html=1;exitX=0.25;exitY=1;exitDx=0;exitDy=0;entryX=0.869;entryY=-0.067;entryDx=0;entryDy=0;entryPerimeter=0;" parent="1" source="7ll33GOGdLyXnNrk37ep-1" target="7ll33GOGdLyXnNrk37ep-2" edge="1">
          <mxGeometry relative="1" as="geometry" />
        </mxCell>
        <mxCell id="b-PW-BUJUct7SB3stRK7-4" style="edgeStyle=orthogonalEdgeStyle;rounded=0;orthogonalLoop=1;jettySize=auto;html=1;exitX=0.25;exitY=1;exitDx=0;exitDy=0;entryX=0.5;entryY=0;entryDx=0;entryDy=0;" edge="1" parent="1" source="YMpGi-tXIN5TICnSy7nA-1" target="b-PW-BUJUct7SB3stRK7-2">
          <mxGeometry relative="1" as="geometry" />
        </mxCell>
        <mxCell id="b-PW-BUJUct7SB3stRK7-5" style="edgeStyle=orthogonalEdgeStyle;rounded=0;orthogonalLoop=1;jettySize=auto;html=1;exitX=0.75;exitY=1;exitDx=0;exitDy=0;" edge="1" parent="1" source="YMpGi-tXIN5TICnSy7nA-1" target="b-PW-BUJUct7SB3stRK7-3">
          <mxGeometry relative="1" as="geometry" />
        </mxCell>
        <mxCell id="YMpGi-tXIN5TICnSy7nA-1" value="you evade the blast, but as you roll, a stray drop of bug ridden code (c++ written by an intern) hits your right foot. it will begin to spread and you will die when it reaches 51% of your body. you are at 2%. to cure the infection, kill the Glitcher." style="rounded=0;whiteSpace=wrap;html=1;" parent="1" vertex="1">
          <mxGeometry x="-810" y="1270" width="210" height="100" as="geometry" />
        </mxCell>
        <mxCell id="YMpGi-tXIN5TICnSy7nA-2" style="edgeStyle=orthogonalEdgeStyle;rounded=0;orthogonalLoop=1;jettySize=auto;html=1;exitX=0.5;exitY=1;exitDx=0;exitDy=0;entryX=0.548;entryY=0.03;entryDx=0;entryDy=0;entryPerimeter=0;" parent="1" source="7ll33GOGdLyXnNrk37ep-2" target="YMpGi-tXIN5TICnSy7nA-1" edge="1">
          <mxGeometry relative="1" as="geometry" />
        </mxCell>
        <mxCell id="b-PW-BUJUct7SB3stRK7-2" value="charge straight at the glitcher" style="rounded=0;whiteSpace=wrap;html=1;fillColor=#CCCCCC;" vertex="1" parent="1">
          <mxGeometry x="-840" y="1400" width="130" height="40" as="geometry" />
        </mxCell>
        <mxCell id="b-PW-BUJUct7SB3stRK7-16" style="edgeStyle=orthogonalEdgeStyle;rounded=0;orthogonalLoop=1;jettySize=auto;html=1;exitX=0.5;exitY=1;exitDx=0;exitDy=0;entryX=0.25;entryY=0;entryDx=0;entryDy=0;" edge="1" parent="1" source="b-PW-BUJUct7SB3stRK7-3" target="b-PW-BUJUct7SB3stRK7-15">
          <mxGeometry relative="1" as="geometry" />
        </mxCell>
        <mxCell id="b-PW-BUJUct7SB3stRK7-3" value="run around to the side of the glitcher" style="rounded=0;whiteSpace=wrap;html=1;fillColor=#CCCCCC;" vertex="1" parent="1">
          <mxGeometry x="-680" y="1400" width="130" height="40" as="geometry" />
        </mxCell>
        <mxCell id="b-PW-BUJUct7SB3stRK7-9" style="edgeStyle=orthogonalEdgeStyle;rounded=0;orthogonalLoop=1;jettySize=auto;html=1;exitX=0.25;exitY=1;exitDx=0;exitDy=0;" edge="1" parent="1" source="b-PW-BUJUct7SB3stRK7-6" target="b-PW-BUJUct7SB3stRK7-8">
          <mxGeometry relative="1" as="geometry" />
        </mxCell>
        <mxCell id="b-PW-BUJUct7SB3stRK7-11" style="edgeStyle=orthogonalEdgeStyle;rounded=0;orthogonalLoop=1;jettySize=auto;html=1;exitX=0.75;exitY=1;exitDx=0;exitDy=0;entryX=0.5;entryY=0;entryDx=0;entryDy=0;" edge="1" parent="1" source="b-PW-BUJUct7SB3stRK7-6" target="b-PW-BUJUct7SB3stRK7-10">
          <mxGeometry relative="1" as="geometry" />
        </mxCell>
        <mxCell id="b-PW-BUJUct7SB3stRK7-6" value="well that was foolish. the glitcher has caught you. stun him by figuring out what this javascript snippet will return:&amp;nbsp;console.log(5 + true);&amp;nbsp;" style="rounded=0;whiteSpace=wrap;html=1;" vertex="1" parent="1">
          <mxGeometry x="-835" y="1500" width="225" height="60" as="geometry" />
        </mxCell>
        <mxCell id="b-PW-BUJUct7SB3stRK7-7" style="edgeStyle=orthogonalEdgeStyle;rounded=0;orthogonalLoop=1;jettySize=auto;html=1;exitX=0.5;exitY=1;exitDx=0;exitDy=0;entryX=0.293;entryY=-0.033;entryDx=0;entryDy=0;entryPerimeter=0;" edge="1" parent="1" source="b-PW-BUJUct7SB3stRK7-2" target="b-PW-BUJUct7SB3stRK7-6">
          <mxGeometry relative="1" as="geometry" />
        </mxCell>
        <mxCell id="b-PW-BUJUct7SB3stRK7-8" value="NaN" style="rounded=0;whiteSpace=wrap;html=1;fillColor=#CCCCCC;" vertex="1" parent="1">
          <mxGeometry x="-830" y="1590" width="60" height="30" as="geometry" />
        </mxCell>
        <mxCell id="b-PW-BUJUct7SB3stRK7-18" style="edgeStyle=orthogonalEdgeStyle;rounded=0;orthogonalLoop=1;jettySize=auto;html=1;exitX=0.5;exitY=1;exitDx=0;exitDy=0;" edge="1" parent="1" source="b-PW-BUJUct7SB3stRK7-10" target="b-PW-BUJUct7SB3stRK7-17">
          <mxGeometry relative="1" as="geometry" />
        </mxCell>
        <mxCell id="b-PW-BUJUct7SB3stRK7-10" value="6" style="rounded=0;whiteSpace=wrap;html=1;fillColor=#CCCCCC;" vertex="1" parent="1">
          <mxGeometry x="-690" y="1590" width="60" height="30" as="geometry" />
        </mxCell>
        <mxCell id="b-PW-BUJUct7SB3stRK7-12" value="You try to wriggle free from the glitchers grasp, but it uses its sharp fangs to SQL inject you with malicious code. You bleed out from your wounds." style="rounded=0;whiteSpace=wrap;html=1;fillColor=#FF3D1F;" vertex="1" parent="1">
          <mxGeometry x="-840" y="2020" width="210" height="60" as="geometry" />
        </mxCell>
        <mxCell id="b-PW-BUJUct7SB3stRK7-14" style="edgeStyle=orthogonalEdgeStyle;rounded=0;orthogonalLoop=1;jettySize=auto;html=1;exitX=0.5;exitY=1;exitDx=0;exitDy=0;entryX=0.105;entryY=-0.033;entryDx=0;entryDy=0;entryPerimeter=0;" edge="1" parent="1" source="b-PW-BUJUct7SB3stRK7-8" target="b-PW-BUJUct7SB3stRK7-12">
          <mxGeometry relative="1" as="geometry" />
        </mxCell>
        <mxCell id="HWxFE-YdthxAO3Wq9E3C-3" style="edgeStyle=orthogonalEdgeStyle;rounded=0;orthogonalLoop=1;jettySize=auto;html=1;entryX=0.5;entryY=0;entryDx=0;entryDy=0;" edge="1" parent="1" source="b-PW-BUJUct7SB3stRK7-15" target="HWxFE-YdthxAO3Wq9E3C-2">
          <mxGeometry relative="1" as="geometry" />
        </mxCell>
        <mxCell id="b-PW-BUJUct7SB3stRK7-15" value="you&#39;re now on the left side of the glitcher, and you ran fast enough that it didnt see you yet. but the infection is now at 20% of your body." style="rounded=0;whiteSpace=wrap;html=1;" vertex="1" parent="1">
          <mxGeometry x="-610" y="1500" width="205" height="60" as="geometry" />
        </mxCell>
        <mxCell id="b-PW-BUJUct7SB3stRK7-21" style="edgeStyle=orthogonalEdgeStyle;rounded=0;orthogonalLoop=1;jettySize=auto;html=1;exitX=0.25;exitY=1;exitDx=0;exitDy=0;entryX=0.5;entryY=0;entryDx=0;entryDy=0;" edge="1" parent="1" source="b-PW-BUJUct7SB3stRK7-17" target="b-PW-BUJUct7SB3stRK7-19">
          <mxGeometry relative="1" as="geometry" />
        </mxCell>
        <mxCell id="b-PW-BUJUct7SB3stRK7-24" value="" style="edgeStyle=orthogonalEdgeStyle;rounded=0;orthogonalLoop=1;jettySize=auto;html=1;" edge="1" parent="1" source="b-PW-BUJUct7SB3stRK7-17" target="b-PW-BUJUct7SB3stRK7-20">
          <mxGeometry relative="1" as="geometry" />
        </mxCell>
        <mxCell id="b-PW-BUJUct7SB3stRK7-17" value="you manage to stun the glitcher long enough to escape, using the power of javascript&#39;s weird type coercion. what now?&amp;nbsp;" style="rounded=0;whiteSpace=wrap;html=1;" vertex="1" parent="1">
          <mxGeometry x="-710" y="1650" width="160" height="70" as="geometry" />
        </mxCell>
        <mxCell id="b-PW-BUJUct7SB3stRK7-23" value="" style="edgeStyle=orthogonalEdgeStyle;rounded=0;orthogonalLoop=1;jettySize=auto;html=1;" edge="1" parent="1" source="b-PW-BUJUct7SB3stRK7-19" target="b-PW-BUJUct7SB3stRK7-22">
          <mxGeometry relative="1" as="geometry" />
        </mxCell>
        <mxCell id="b-PW-BUJUct7SB3stRK7-19" value="look for an exit" style="rounded=0;whiteSpace=wrap;html=1;fillColor=#CCCCCC;" vertex="1" parent="1">
          <mxGeometry x="-760" y="1760" width="110" height="30" as="geometry" />
        </mxCell>
        <mxCell id="_RgGMKZWbLHqTMXaqtxr-3" value="" style="edgeStyle=orthogonalEdgeStyle;rounded=0;orthogonalLoop=1;jettySize=auto;html=1;" edge="1" parent="1" source="b-PW-BUJUct7SB3stRK7-20" target="_RgGMKZWbLHqTMXaqtxr-2">
          <mxGeometry relative="1" as="geometry" />
        </mxCell>
        <mxCell id="b-PW-BUJUct7SB3stRK7-20" value="try to debug the glitcher and restore him back to his human form" style="rounded=0;whiteSpace=wrap;html=1;fillColor=#CCCCCC;" vertex="1" parent="1">
          <mxGeometry x="-600" y="1760" width="170" height="50" as="geometry" />
        </mxCell>
        <mxCell id="b-PW-BUJUct7SB3stRK7-22" value="you spot a door and manage to leave the glitcher in the dust. unfortunately, jens moenig, creator of Snap! is incredibly mad at you for writing your ap csp create task in rust and decides that he will use the supreme power of alonzo to end your playthrough. game over." style="rounded=0;whiteSpace=wrap;html=1;fillColor=#FF3D1F;" vertex="1" parent="1">
          <mxGeometry x="-785" y="1850" width="165" height="160" as="geometry" />
        </mxCell>
        <mxCell id="b-PW-BUJUct7SB3stRK7-25" value="the glitcher anticipates your move, and before you can react, he forces you to reply &quot;LGTM! :) &quot; on a junior dev&#39;s bug ridden commit and push it to production without review. Linus Torvalds smites you for this sin." style="rounded=0;whiteSpace=wrap;html=1;fillColor=#FF3D1F;" vertex="1" parent="1">
          <mxGeometry x="-260" y="1130" width="230" height="100" as="geometry" />
        </mxCell>
        <mxCell id="_RgGMKZWbLHqTMXaqtxr-1" style="edgeStyle=orthogonalEdgeStyle;rounded=0;orthogonalLoop=1;jettySize=auto;html=1;exitX=1;exitY=1;exitDx=0;exitDy=0;entryX=0.856;entryY=1.046;entryDx=0;entryDy=0;entryPerimeter=0;" edge="1" parent="1" source="b-PW-BUJUct7SB3stRK7-22" target="b-PW-BUJUct7SB3stRK7-22">
          <mxGeometry relative="1" as="geometry" />
        </mxCell>
        <mxCell id="_RgGMKZWbLHqTMXaqtxr-7" style="edgeStyle=orthogonalEdgeStyle;rounded=0;orthogonalLoop=1;jettySize=auto;html=1;exitX=0.25;exitY=1;exitDx=0;exitDy=0;entryX=0.5;entryY=0;entryDx=0;entryDy=0;shadow=1;fillColor=#CCCCCC;" edge="1" parent="1" source="_RgGMKZWbLHqTMXaqtxr-2" target="_RgGMKZWbLHqTMXaqtxr-4">
          <mxGeometry relative="1" as="geometry" />
        </mxCell>
        <mxCell id="_RgGMKZWbLHqTMXaqtxr-2" value="you examine the glitcher, and discover a usb port on the back of his neck. you climb up and plug in your laptop. its hacking time!" style="rounded=0;whiteSpace=wrap;html=1;" vertex="1" parent="1">
          <mxGeometry x="-590" y="1850" width="170" height="70" as="geometry" />
        </mxCell>
        <mxCell id="_RgGMKZWbLHqTMXaqtxr-10" style="edgeStyle=orthogonalEdgeStyle;rounded=0;orthogonalLoop=1;jettySize=auto;html=1;" edge="1" parent="1" source="_RgGMKZWbLHqTMXaqtxr-4" target="_RgGMKZWbLHqTMXaqtxr-8">
          <mxGeometry relative="1" as="geometry" />
        </mxCell>
        <mxCell id="_RgGMKZWbLHqTMXaqtxr-4" value="use arch linux" style="rounded=0;whiteSpace=wrap;html=1;shadow=0;fillColor=#CCCCCC;" vertex="1" parent="1">
          <mxGeometry x="-600" y="1940" width="95" height="20" as="geometry" />
        </mxCell>
        <mxCell id="_RgGMKZWbLHqTMXaqtxr-12" style="edgeStyle=orthogonalEdgeStyle;rounded=0;orthogonalLoop=1;jettySize=auto;html=1;exitX=0.5;exitY=1;exitDx=0;exitDy=0;entryX=0.5;entryY=0;entryDx=0;entryDy=0;" edge="1" parent="1" source="_RgGMKZWbLHqTMXaqtxr-5" target="_RgGMKZWbLHqTMXaqtxr-11">
          <mxGeometry relative="1" as="geometry" />
        </mxCell>
        <mxCell id="_RgGMKZWbLHqTMXaqtxr-5" value="use kali linux" style="rounded=0;whiteSpace=wrap;html=1;shadow=0;fillColor=#CCCCCC;" vertex="1" parent="1">
          <mxGeometry x="-500" y="1940" width="95" height="20" as="geometry" />
        </mxCell>
        <mxCell id="_RgGMKZWbLHqTMXaqtxr-6" style="edgeStyle=orthogonalEdgeStyle;rounded=0;orthogonalLoop=1;jettySize=auto;html=1;exitX=0.75;exitY=1;exitDx=0;exitDy=0;entryX=0.6;entryY=0.05;entryDx=0;entryDy=0;entryPerimeter=0;shadow=1;fillColor=#CCCCCC;" edge="1" parent="1" source="_RgGMKZWbLHqTMXaqtxr-2" target="_RgGMKZWbLHqTMXaqtxr-5">
          <mxGeometry relative="1" as="geometry" />
        </mxCell>
        <mxCell id="_RgGMKZWbLHqTMXaqtxr-8" value="you&#39;ve chosen Arch, the neckbeard distro. overwhelmed by the complicated install process, you break down mentally and fall to the floor, uncontrollably screaming &quot;I USE ARCH BY THE WAY&quot;. mission failed, we&#39;ll get em next time" style="rounded=0;whiteSpace=wrap;html=1;fillColor=#FF3D1F;" vertex="1" parent="1">
          <mxGeometry x="-705" y="2090" width="275" height="80" as="geometry" />
        </mxCell>
        <mxCell id="_RgGMKZWbLHqTMXaqtxr-21" style="edgeStyle=orthogonalEdgeStyle;rounded=0;orthogonalLoop=1;jettySize=auto;html=1;exitX=0.5;exitY=1;exitDx=0;exitDy=0;entryX=0.5;entryY=0;entryDx=0;entryDy=0;" edge="1" parent="1" source="_RgGMKZWbLHqTMXaqtxr-11" target="_RgGMKZWbLHqTMXaqtxr-13">
          <mxGeometry relative="1" as="geometry" />
        </mxCell>
        <mxCell id="_RgGMKZWbLHqTMXaqtxr-23" style="edgeStyle=orthogonalEdgeStyle;rounded=0;orthogonalLoop=1;jettySize=auto;html=1;exitX=1;exitY=0.5;exitDx=0;exitDy=0;entryX=0;entryY=0.5;entryDx=0;entryDy=0;" edge="1" parent="1" source="_RgGMKZWbLHqTMXaqtxr-11" target="_RgGMKZWbLHqTMXaqtxr-14">
          <mxGeometry relative="1" as="geometry" />
        </mxCell>
        <mxCell id="_RgGMKZWbLHqTMXaqtxr-11" value="you boot up kali linux, and open the terminal. what do you type?" style="rounded=0;whiteSpace=wrap;html=1;" vertex="1" parent="1">
          <mxGeometry x="-410" y="2000" width="120" height="60" as="geometry" />
        </mxCell>
        <mxCell id="_RgGMKZWbLHqTMXaqtxr-13" value="&lt;div&gt;:(){ :|:&amp;amp; };:&lt;/div&gt;" style="rounded=0;whiteSpace=wrap;html=1;fillColor=#CCCCCC;" vertex="1" parent="1">
          <mxGeometry x="-405" y="2110" width="70" height="30" as="geometry" />
        </mxCell>
        <mxCell id="_RgGMKZWbLHqTMXaqtxr-24" value="" style="edgeStyle=orthogonalEdgeStyle;rounded=0;orthogonalLoop=1;jettySize=auto;html=1;" edge="1" parent="1" source="_RgGMKZWbLHqTMXaqtxr-14" target="_RgGMKZWbLHqTMXaqtxr-17">
          <mxGeometry relative="1" as="geometry" />
        </mxCell>
        <mxCell id="_RgGMKZWbLHqTMXaqtxr-14" value="if (goingToKillMe) { pleaseDont() }" style="rounded=0;whiteSpace=wrap;html=1;fillColor=#CCCCCC;" vertex="1" parent="1">
          <mxGeometry x="-260" y="2010" width="200" height="40" as="geometry" />
        </mxCell>
        <mxCell id="_RgGMKZWbLHqTMXaqtxr-27" style="edgeStyle=orthogonalEdgeStyle;rounded=0;orthogonalLoop=1;jettySize=auto;html=1;exitX=0.75;exitY=0;exitDx=0;exitDy=0;" edge="1" parent="1" source="_RgGMKZWbLHqTMXaqtxr-17" target="_RgGMKZWbLHqTMXaqtxr-25">
          <mxGeometry relative="1" as="geometry" />
        </mxCell>
        <mxCell id="_RgGMKZWbLHqTMXaqtxr-17" value="the glitcher doesn&#39;t understand javascript, and its circuitry begins smoking trying to process the abomination. it disappears in a cloud of smoke, and reveals a man once it clears" style="rounded=0;whiteSpace=wrap;html=1;" vertex="1" parent="1">
          <mxGeometry x="-260" y="1870" width="210" height="100" as="geometry" />
        </mxCell>
        <mxCell id="_RgGMKZWbLHqTMXaqtxr-18" value="Good thinking with the forkbomb. but you made one crucial mistake: you&#39;re running it on your own laptop, not the glitcher&#39;s brain. your laptop overheats and shuts down and the glitcher infects you with ransomware. your family must now pay 400 million dollars in bitcoin to save you. game over" style="rounded=0;whiteSpace=wrap;html=1;fillColor=#FF3D1F;" vertex="1" parent="1">
          <mxGeometry x="-320" y="2090" width="320" height="90" as="geometry" />
        </mxCell>
        <mxCell id="_RgGMKZWbLHqTMXaqtxr-22" style="edgeStyle=orthogonalEdgeStyle;rounded=0;orthogonalLoop=1;jettySize=auto;html=1;exitX=1;exitY=0.5;exitDx=0;exitDy=0;entryX=0;entryY=0.433;entryDx=0;entryDy=0;entryPerimeter=0;" edge="1" parent="1" source="_RgGMKZWbLHqTMXaqtxr-13" target="_RgGMKZWbLHqTMXaqtxr-18">
          <mxGeometry relative="1" as="geometry" />
        </mxCell>
        <mxCell id="_RgGMKZWbLHqTMXaqtxr-33" style="edgeStyle=orthogonalEdgeStyle;rounded=0;orthogonalLoop=1;jettySize=auto;html=1;exitX=0.5;exitY=0;exitDx=0;exitDy=0;entryX=0.5;entryY=1;entryDx=0;entryDy=0;" edge="1" parent="1" source="_RgGMKZWbLHqTMXaqtxr-25" target="_RgGMKZWbLHqTMXaqtxr-32">
          <mxGeometry relative="1" as="geometry" />
        </mxCell>
        <mxCell id="_RgGMKZWbLHqTMXaqtxr-25" value="go up to the man" style="rounded=0;whiteSpace=wrap;html=1;fillColor=#CCCCCC;" vertex="1" parent="1">
          <mxGeometry x="-150" y="1800" width="110" height="30" as="geometry" />
        </mxCell>
        <mxCell id="_RgGMKZWbLHqTMXaqtxr-31" style="edgeStyle=orthogonalEdgeStyle;rounded=0;orthogonalLoop=1;jettySize=auto;html=1;" edge="1" parent="1" source="_RgGMKZWbLHqTMXaqtxr-26" target="_RgGMKZWbLHqTMXaqtxr-30">
          <mxGeometry relative="1" as="geometry" />
        </mxCell>
        <mxCell id="_RgGMKZWbLHqTMXaqtxr-26" value="escape through the door" style="rounded=0;whiteSpace=wrap;html=1;fillColor=#CCCCCC;" vertex="1" parent="1">
          <mxGeometry x="-405" y="1890" width="140" height="30" as="geometry" />
        </mxCell>
        <mxCell id="_RgGMKZWbLHqTMXaqtxr-29" style="edgeStyle=orthogonalEdgeStyle;rounded=0;orthogonalLoop=1;jettySize=auto;html=1;exitX=0.25;exitY=0;exitDx=0;exitDy=0;entryX=0.907;entryY=-0.1;entryDx=0;entryDy=0;entryPerimeter=0;" edge="1" parent="1" source="_RgGMKZWbLHqTMXaqtxr-17" target="_RgGMKZWbLHqTMXaqtxr-26">
          <mxGeometry relative="1" as="geometry" />
        </mxCell>
        <mxCell id="_RgGMKZWbLHqTMXaqtxr-30" value="Well, well, well, says jens moenig, creator of Snap. it looks like you decided to write your ap create task in Rust instead of my glorious Snap. Alonzo, take him away! Alonzo, the mascot of Snap, drags you away to a dungeon where you will be forced to write Snap code for all eternity" style="rounded=0;whiteSpace=wrap;html=1;fillColor=#FF3D1F;" vertex="1" parent="1">
          <mxGeometry x="-412.5" y="1690" width="192.5" height="140" as="geometry" />
        </mxCell>
        <mxCell id="_RgGMKZWbLHqTMXaqtxr-35" value="" style="edgeStyle=orthogonalEdgeStyle;rounded=0;orthogonalLoop=1;jettySize=auto;html=1;" edge="1" parent="1" source="_RgGMKZWbLHqTMXaqtxr-32" target="_RgGMKZWbLHqTMXaqtxr-34">
          <mxGeometry relative="1" as="geometry" />
        </mxCell>
        <mxCell id="_RgGMKZWbLHqTMXaqtxr-32" value="whoa, you saved me! i thought id be trapped in that thing forever. I&#39;m dr steiner by the way, i was a researcher here before... the incident. here, let me get that c++ off of you, it was written by an intern here, so its basically poison. look at you! its all over both of your legs. 5 more minutes and you would have turned into a glitcher too. anyway, lets get out of here, i know a back way" style="rounded=0;whiteSpace=wrap;html=1;" vertex="1" parent="1">
          <mxGeometry x="-210" y="1610" width="190" height="170" as="geometry" />
        </mxCell>
        <mxCell id="_RgGMKZWbLHqTMXaqtxr-37" value="" style="edgeStyle=orthogonalEdgeStyle;rounded=0;orthogonalLoop=1;jettySize=auto;html=1;" edge="1" parent="1" source="_RgGMKZWbLHqTMXaqtxr-34" target="_RgGMKZWbLHqTMXaqtxr-36">
          <mxGeometry relative="1" as="geometry" />
        </mxCell>
        <mxCell id="_RgGMKZWbLHqTMXaqtxr-34" value="follow him" style="rounded=0;whiteSpace=wrap;html=1;fillColor=#CCCCCC;" vertex="1" parent="1">
          <mxGeometry x="-210" y="1550" width="120" height="30" as="geometry" />
        </mxCell>
        <mxCell id="_RgGMKZWbLHqTMXaqtxr-36" value="you follow dr steiner through a small trapdoor that you didn&#39;t notice before. he leads you out of the laboratory, before leaving you with these final words: &quot;good luck out there stranger, this is where I leave you. i must try to save the others. dont come back.&quot;&lt;div&gt;you have escaped!&lt;/div&gt;" style="rounded=0;whiteSpace=wrap;html=1;fillColor=#97D077;" vertex="1" parent="1">
          <mxGeometry x="-310" y="1300" width="160" height="160" as="geometry" />
        </mxCell>
        <mxCell id="HWxFE-YdthxAO3Wq9E3C-1" style="edgeStyle=orthogonalEdgeStyle;rounded=0;orthogonalLoop=1;jettySize=auto;html=1;entryX=0.571;entryY=-0.08;entryDx=0;entryDy=0;entryPerimeter=0;" edge="1" parent="1" source="b-PW-BUJUct7SB3stRK7-15" target="b-PW-BUJUct7SB3stRK7-20">
          <mxGeometry relative="1" as="geometry" />
        </mxCell>
        <mxCell id="HWxFE-YdthxAO3Wq9E3C-4" value="" style="edgeStyle=orthogonalEdgeStyle;rounded=0;orthogonalLoop=1;jettySize=auto;html=1;" edge="1" parent="1" source="HWxFE-YdthxAO3Wq9E3C-2" target="_RgGMKZWbLHqTMXaqtxr-30">
          <mxGeometry relative="1" as="geometry" />
        </mxCell>
        <mxCell id="HWxFE-YdthxAO3Wq9E3C-2" value="try to escape through the door to your left" style="rounded=0;whiteSpace=wrap;html=1;fillColor=#CCCCCC;" vertex="1" parent="1">
          <mxGeometry x="-380" y="1570" width="120" height="60" as="geometry" />
        </mxCell>
      </root>
    </mxGraphModel>
  </diagram>
  <diagram id="jYiWsv1bBD_NPVOmAqth" name="byte bender">
    <mxGraphModel dx="1674" dy="739" grid="1" gridSize="10" guides="1" tooltips="1" connect="1" arrows="1" fold="1" page="1" pageScale="1" pageWidth="850" pageHeight="1100" math="0" shadow="0">
      <root>
        <mxCell id="0" />
        <mxCell id="1" parent="0" />
      </root>
    </mxGraphModel>
  </diagram>
</mxfile>
